<svg xmlns="http://www.w3.org/2000/svg" xmlns:xlink="http://www.w3.org/1999/xlink" width="1366" zoomAndPan="magnify" viewBox="0 0 1024.5 576" height="768" preserveAspectRatio="xMidYMid meet" version="1.0"><path fill="#05a0ff" d="M 78.089844 195.816406 C 76.105469 195.816406 75.617188 194.824219 76.605469 193.34375 L 86.984375 179.992188 C 87.976562 178.507812 90.441406 177.519531 92.417969 177.519531 L 268.878906 177.519531 C 270.859375 177.519531 271.347656 179.003906 270.359375 180.488281 L 261.953125 193.34375 C 260.960938 194.828125 258.496094 196.3125 257.011719 196.3125 L 78.082031 195.816406 Z M 3.457031 241.328125 C 1.472656 241.328125 0.984375 240.335938 1.972656 238.855469 L 12.351562 225.5 C 13.339844 224.015625 15.808594 223.027344 17.785156 223.027344 L 243.179688 223.027344 C 245.164062 223.027344 246.144531 224.511719 245.648438 225.996094 L 241.695312 237.863281 C 241.199219 239.847656 239.226562 240.832031 237.246094 240.832031 Z M 123.070312 286.839844 C 121.089844 286.839844 120.601562 285.355469 121.589844 283.871094 L 128.507812 271.503906 C 129.5 270.019531 131.476562 268.535156 133.449219 268.535156 L 232.304688 268.535156 C 234.289062 268.535156 235.273438 270.019531 235.273438 271.996094 L 234.28125 283.863281 C 234.28125 285.847656 232.296875 287.324219 230.824219 287.324219 L 123.066406 286.828125 Z M 636.148438 186.914062 L 553.109375 208.675781 C 545.691406 210.660156 545.199219 211.148438 538.773438 203.730469 C 531.355469 195.316406 525.921875 189.839844 515.542969 184.9375 C 484.402344 169.601562 454.25 174.054688 426.074219 192.355469 C 392.464844 214.121094 375.164062 246.277344 375.65625 286.347656 C 376.152344 325.914062 403.335938 358.570312 442.386719 364.015625 C 476 368.46875 504.171875 356.59375 526.417969 331.367188 C 530.867188 325.929688 534.828125 319.988281 539.765625 313.0625 L 444.351562 313.0625 C 433.972656 313.0625 431.5 306.632812 434.960938 298.21875 C 441.382812 282.886719 453.25 257.164062 460.167969 244.300781 C 461.652344 241.332031 465.109375 236.386719 472.527344 236.386719 L 652.449219 236.386719 C 651.457031 249.742188 651.457031 263.097656 649.480469 276.457031 C 644.050781 312.070312 630.699219 344.71875 608.953125 373.414062 C 573.363281 420.402344 526.902344 449.59375 468.082031 457.511719 C 419.640625 463.941406 374.660156 454.542969 335.113281 424.863281 C 298.511719 397.15625 277.792969 360.546875 272.355469 315.039062 C 265.929688 261.121094 281.746094 212.644531 314.371094 170.101562 C 349.46875 124.09375 395.929688 94.90625 452.773438 84.523438 C 499.234375 76.109375 543.722656 81.554688 583.757812 108.757812 C 609.957031 126.070312 628.738281 149.816406 641.101562 178.511719 C 644.070312 182.964844 642.09375 185.4375 636.160156 186.925781 Z M 636.148438 186.914062 " fill-opacity="1" fill-rule="nonzero"/><path fill="#05a0ff" d="M 799.761719 460.46875 C 754.78125 459.476562 713.753906 446.578125 679.152344 416.929688 C 649.988281 391.703125 631.699219 359.542969 625.773438 321.457031 C 616.875 265.558594 632.199219 216.085938 665.8125 172.066406 C 701.898438 124.574219 745.390625 99.839844 804.214844 89.453125 C 854.632812 80.550781 902.085938 85.496094 945.085938 114.683594 C 984.136719 141.394531 1008.355469 177.511719 1014.78125 224.996094 C 1023.191406 291.78125 1003.910156 346.191406 957.9375 392.695312 C 925.316406 425.832031 885.28125 446.613281 839.308594 456.011719 C 825.964844 458.484375 812.621094 458.980469 799.773438 460.464844 Z M 917.402344 260.621094 C 916.90625 254.191406 916.90625 249.242188 915.917969 244.296875 C 907.019531 195.320312 862.042969 167.621094 815.082031 178.507812 C 769.113281 188.894531 739.457031 218.074219 728.585938 264.582031 C 719.6875 303.164062 738.472656 342.25 774.058594 358.074219 C 801.242188 369.941406 828.429688 368.460938 854.628906 355.105469 C 893.679688 334.863281 914.929688 303.164062 917.40625 260.621094 Z M 917.402344 260.621094 " fill-opacity="1" fill-rule="nonzero"/></svg>